<mxfile host="app.diagrams.net" modified="2024-04-02T19:53:31.323Z" agent="Mozilla/5.0 (Windows NT 10.0; Win64; x64) AppleWebKit/537.36 (KHTML, like Gecko) Chrome/120.0.0.0 YaBrowser/24.1.0.0 Safari/537.36" etag="OuBeXq1wNOIGtqCLULGN" version="24.2.1" type="device">
  <diagram name="Page-1" id="dKg7kPaC62XSbwqTq_zG">
    <mxGraphModel dx="1822" dy="3526" grid="1" gridSize="10" guides="1" tooltips="1" connect="1" arrows="1" fold="1" page="1" pageScale="1" pageWidth="1169" pageHeight="827" math="0" shadow="0">
      <root>
        <mxCell id="0" />
        <mxCell id="1" parent="0" />
        <mxCell id="g_9opEYSUknULna6paX7-21" style="edgeStyle=orthogonalEdgeStyle;rounded=0;orthogonalLoop=1;jettySize=auto;html=1;exitX=0.5;exitY=1;exitDx=0;exitDy=0;" edge="1" parent="1" source="g_9opEYSUknULna6paX7-1" target="g_9opEYSUknULna6paX7-8">
          <mxGeometry relative="1" as="geometry" />
        </mxCell>
        <mxCell id="g_9opEYSUknULna6paX7-1" value="Начало" style="rounded=1;whiteSpace=wrap;html=1;" vertex="1" parent="1">
          <mxGeometry x="500" y="-2481" width="120" height="30" as="geometry" />
        </mxCell>
        <mxCell id="g_9opEYSUknULna6paX7-22" style="edgeStyle=orthogonalEdgeStyle;rounded=0;orthogonalLoop=1;jettySize=auto;html=1;exitX=0.5;exitY=1;exitDx=0;exitDy=0;" edge="1" parent="1" source="g_9opEYSUknULna6paX7-8" target="g_9opEYSUknULna6paX7-9">
          <mxGeometry relative="1" as="geometry" />
        </mxCell>
        <mxCell id="g_9opEYSUknULna6paX7-8" value="Бронирование столика" style="rounded=0;whiteSpace=wrap;html=1;fillColor=none;" vertex="1" parent="1">
          <mxGeometry x="500" y="-2411" width="120" height="60" as="geometry" />
        </mxCell>
        <mxCell id="g_9opEYSUknULna6paX7-23" style="edgeStyle=orthogonalEdgeStyle;rounded=0;orthogonalLoop=1;jettySize=auto;html=1;exitX=0.5;exitY=1;exitDx=0;exitDy=0;" edge="1" parent="1" source="g_9opEYSUknULna6paX7-9" target="g_9opEYSUknULna6paX7-10">
          <mxGeometry relative="1" as="geometry" />
        </mxCell>
        <mxCell id="g_9opEYSUknULna6paX7-9" value="Учет времени прибытия и ухода посетителей" style="shape=process;whiteSpace=wrap;html=1;backgroundOutline=1;fillColor=none;" vertex="1" parent="1">
          <mxGeometry x="500" y="-2311" width="120" height="60" as="geometry" />
        </mxCell>
        <mxCell id="g_9opEYSUknULna6paX7-24" style="edgeStyle=orthogonalEdgeStyle;rounded=0;orthogonalLoop=1;jettySize=auto;html=1;exitX=0.5;exitY=1;exitDx=0;exitDy=0;" edge="1" parent="1" source="g_9opEYSUknULna6paX7-10" target="g_9opEYSUknULna6paX7-11">
          <mxGeometry relative="1" as="geometry" />
        </mxCell>
        <mxCell id="g_9opEYSUknULna6paX7-10" value="Сохранение данных посетителя" style="shape=datastore;whiteSpace=wrap;html=1;" vertex="1" parent="1">
          <mxGeometry x="512" y="-2191" width="96" height="70" as="geometry" />
        </mxCell>
        <mxCell id="g_9opEYSUknULna6paX7-25" style="edgeStyle=orthogonalEdgeStyle;rounded=0;orthogonalLoop=1;jettySize=auto;html=1;exitX=0.5;exitY=1;exitDx=0;exitDy=0;entryX=0.5;entryY=0;entryDx=0;entryDy=0;" edge="1" parent="1" source="g_9opEYSUknULna6paX7-11" target="g_9opEYSUknULna6paX7-14">
          <mxGeometry relative="1" as="geometry" />
        </mxCell>
        <mxCell id="g_9opEYSUknULna6paX7-11" value="Создание заказа" style="rounded=0;whiteSpace=wrap;html=1;fillColor=none;" vertex="1" parent="1">
          <mxGeometry x="500" y="-2071" width="120" height="60" as="geometry" />
        </mxCell>
        <mxCell id="g_9opEYSUknULna6paX7-34" style="edgeStyle=orthogonalEdgeStyle;rounded=0;orthogonalLoop=1;jettySize=auto;html=1;exitX=0.5;exitY=1;exitDx=0;exitDy=0;entryX=0;entryY=0.5;entryDx=0;entryDy=0;" edge="1" parent="1" source="g_9opEYSUknULna6paX7-13" target="g_9opEYSUknULna6paX7-19">
          <mxGeometry relative="1" as="geometry" />
        </mxCell>
        <mxCell id="g_9opEYSUknULna6paX7-13" value="Формирование заказов поставчикам" style="shape=process;whiteSpace=wrap;html=1;backgroundOutline=1;fillColor=none;" vertex="1" parent="1">
          <mxGeometry x="330" y="-1976" width="120" height="60" as="geometry" />
        </mxCell>
        <mxCell id="g_9opEYSUknULna6paX7-27" style="edgeStyle=orthogonalEdgeStyle;rounded=0;orthogonalLoop=1;jettySize=auto;html=1;exitX=0.5;exitY=1;exitDx=0;exitDy=0;entryX=0.5;entryY=0;entryDx=0;entryDy=0;" edge="1" parent="1" source="g_9opEYSUknULna6paX7-14" target="g_9opEYSUknULna6paX7-15">
          <mxGeometry relative="1" as="geometry" />
        </mxCell>
        <mxCell id="g_9opEYSUknULna6paX7-33" style="edgeStyle=orthogonalEdgeStyle;rounded=0;orthogonalLoop=1;jettySize=auto;html=1;exitX=0;exitY=0.5;exitDx=0;exitDy=0;" edge="1" parent="1" source="g_9opEYSUknULna6paX7-14" target="g_9opEYSUknULna6paX7-13">
          <mxGeometry relative="1" as="geometry" />
        </mxCell>
        <mxCell id="g_9opEYSUknULna6paX7-14" value="Данные о товарных запасов" style="shape=datastore;whiteSpace=wrap;html=1;" vertex="1" parent="1">
          <mxGeometry x="512" y="-1981" width="96" height="70" as="geometry" />
        </mxCell>
        <mxCell id="g_9opEYSUknULna6paX7-28" style="edgeStyle=orthogonalEdgeStyle;rounded=0;orthogonalLoop=1;jettySize=auto;html=1;exitX=0.5;exitY=1;exitDx=0;exitDy=0;entryX=0.5;entryY=0;entryDx=0;entryDy=0;" edge="1" parent="1" source="g_9opEYSUknULna6paX7-15" target="g_9opEYSUknULna6paX7-17">
          <mxGeometry relative="1" as="geometry" />
        </mxCell>
        <mxCell id="g_9opEYSUknULna6paX7-15" value="Расчет клиента" style="shape=process;whiteSpace=wrap;html=1;backgroundOutline=1;fillColor=none;" vertex="1" parent="1">
          <mxGeometry x="500" y="-1881" width="120" height="60" as="geometry" />
        </mxCell>
        <mxCell id="g_9opEYSUknULna6paX7-29" style="edgeStyle=orthogonalEdgeStyle;rounded=0;orthogonalLoop=1;jettySize=auto;html=1;exitX=0.5;exitY=1;exitDx=0;exitDy=0;entryX=0.5;entryY=0;entryDx=0;entryDy=0;" edge="1" parent="1" source="g_9opEYSUknULna6paX7-17" target="g_9opEYSUknULna6paX7-19">
          <mxGeometry relative="1" as="geometry" />
        </mxCell>
        <mxCell id="g_9opEYSUknULna6paX7-30" style="edgeStyle=orthogonalEdgeStyle;rounded=0;orthogonalLoop=1;jettySize=auto;html=1;exitX=1;exitY=0.5;exitDx=0;exitDy=0;entryX=0;entryY=0.5;entryDx=0;entryDy=0;" edge="1" parent="1" source="g_9opEYSUknULna6paX7-17" target="g_9opEYSUknULna6paX7-18">
          <mxGeometry relative="1" as="geometry" />
        </mxCell>
        <mxCell id="g_9opEYSUknULna6paX7-17" value="Данные о выручке и расходах" style="shape=datastore;whiteSpace=wrap;html=1;" vertex="1" parent="1">
          <mxGeometry x="512" y="-1791" width="96" height="70" as="geometry" />
        </mxCell>
        <mxCell id="g_9opEYSUknULna6paX7-31" style="edgeStyle=orthogonalEdgeStyle;rounded=0;orthogonalLoop=1;jettySize=auto;html=1;exitX=0.5;exitY=1;exitDx=0;exitDy=0;entryX=1;entryY=0.5;entryDx=0;entryDy=0;" edge="1" parent="1" source="g_9opEYSUknULna6paX7-18" target="g_9opEYSUknULna6paX7-19">
          <mxGeometry relative="1" as="geometry" />
        </mxCell>
        <mxCell id="g_9opEYSUknULna6paX7-18" value="Финансовая аналитика" style="shape=process;whiteSpace=wrap;html=1;backgroundOutline=1;fillColor=none;" vertex="1" parent="1">
          <mxGeometry x="670" y="-1786" width="120" height="60" as="geometry" />
        </mxCell>
        <mxCell id="g_9opEYSUknULna6paX7-19" value="Конец" style="rounded=1;whiteSpace=wrap;html=1;" vertex="1" parent="1">
          <mxGeometry x="500" y="-1684" width="120" height="30" as="geometry" />
        </mxCell>
      </root>
    </mxGraphModel>
  </diagram>
</mxfile>
